<svg width="947" height="359" viewBox="0 0 947 359" fill="none" xmlns="http://www.w3.org/2000/svg">
<path d="M170.156 84.0754C159.501 80.1445 147.998 78 136 78V280C147.998 280 159.501 277.856 170.156 273.925M234.132 84.0754C223.477 80.1445 211.973 78 199.975 78V280C211.973 280 223.477 277.856 234.132 273.925M363.709 179C363.709 234.781 319.046 280 263.951 280V78C319.046 78 363.709 123.219 363.709 179Z" stroke="url(#paint0_linear_819_2)" stroke-width="11"/>
<path d="M516.712 150.886C516.12 144.939 513.494 140.209 508.834 136.696C504.173 133.183 498.313 131.427 491.253 131.427C486.279 131.427 481.897 132.279 478.106 133.983C474.35 135.687 471.394 138.052 469.237 141.078C467.116 144.069 466.055 147.478 466.055 151.303C466.055 154.12 466.664 156.59 467.881 158.711C469.098 160.833 470.733 162.659 472.785 164.189C474.872 165.685 477.167 166.972 479.671 168.05C482.21 169.128 484.766 170.032 487.34 170.763L498.609 173.997C502.017 174.936 505.426 176.136 508.834 177.597C512.242 179.057 515.355 180.901 518.172 183.127C521.024 185.318 523.302 188.013 525.006 191.213C526.745 194.378 527.615 198.186 527.615 202.638C527.615 208.342 526.137 213.472 523.181 218.028C520.224 222.584 515.981 226.201 510.451 228.879C504.921 231.522 498.296 232.844 490.575 232.844C483.306 232.844 476.993 231.644 471.637 229.244C466.281 226.81 462.073 223.454 459.012 219.176C455.952 214.898 454.23 209.942 453.847 204.307H463.864C464.212 208.516 465.603 212.081 468.037 215.002C470.472 217.924 473.637 220.15 477.532 221.68C481.428 223.175 485.775 223.923 490.575 223.923C495.896 223.923 500.626 223.036 504.765 221.263C508.938 219.454 512.208 216.95 514.573 213.75C516.972 210.516 518.172 206.759 518.172 202.482C518.172 198.864 517.233 195.839 515.355 193.404C513.477 190.935 510.851 188.865 507.478 187.196C504.139 185.526 500.261 184.048 495.844 182.761L483.062 179.005C474.68 176.501 468.177 173.041 463.551 168.624C458.925 164.207 456.612 158.572 456.612 151.721C456.612 145.982 458.143 140.939 461.203 136.592C464.299 132.209 468.472 128.801 473.724 126.366C479.01 123.897 484.94 122.662 491.514 122.662C498.157 122.662 504.034 123.88 509.147 126.314C514.26 128.749 518.311 132.105 521.302 136.383C524.328 140.626 525.946 145.46 526.154 150.886H516.712ZM551.091 231.018V124.175H560.847V181.718H561.786L613.955 124.175H626.789L581.141 173.58L626.58 231.018H614.686L575.089 180.362L560.847 196.326V231.018H551.091ZM645.205 231.018V124.175H707.026V132.94H654.96V173.162H702.174V181.927H654.96V231.018H645.205ZM732.954 124.175L762.534 170.554H763.212L792.792 124.175H804.322L769.942 177.597L804.322 231.018H792.792L763.212 185.161H762.534L732.954 231.018H721.424L756.326 177.597L721.424 124.175H732.954Z" fill="black"/>
<defs>
<linearGradient id="paint0_linear_819_2" x1="136" y1="78" x2="366.152" y2="277.177" gradientUnits="userSpaceOnUse">
<stop stop-color="#FF9900"/>
<stop offset="1" stop-color="#FF0099"/>
</linearGradient>
</defs>
</svg>
