<svg width="565" height="668" viewBox="0 0 565 668" fill="none" xmlns="http://www.w3.org/2000/svg">
<path d="M300.333 33.9999L323.903 10.4296C317.653 4.17856 309.173 0.666562 300.333 0.666562V33.9999ZM333.667 667.333C352.077 667.333 367 652.41 367 634C367 615.59 352.077 600.667 333.667 600.667V667.333ZM500.333 234H533.667C533.667 225.159 530.153 216.681 523.903 210.43L500.333 234ZM467 267.333C467 285.743 481.923 300.667 500.333 300.667C518.743 300.667 533.667 285.743 533.667 267.333H467ZM167 467.333C148.591 467.333 133.667 482.257 133.667 500.667C133.667 519.077 148.591 534 167 534V467.333ZM267 534C285.41 534 300.333 519.077 300.333 500.667C300.333 482.257 285.41 467.333 267 467.333V534ZM167 334C148.591 334 133.667 348.923 133.667 367.333C133.667 385.743 148.591 400.667 167 400.667V334ZM300.333 400.667C318.743 400.667 333.667 385.743 333.667 367.333C333.667 348.923 318.743 334 300.333 334V400.667ZM167 200.667C148.591 200.667 133.667 215.591 133.667 234C133.667 252.409 148.591 267.333 167 267.333V200.667ZM200.333 267.333C218.743 267.333 233.667 252.409 233.667 234C233.667 215.591 218.743 200.667 200.333 200.667V267.333ZM441.33 527.097C428.313 540.113 428.313 561.22 441.33 574.237C454.347 587.253 475.453 587.253 488.47 574.237L441.33 527.097ZM368.053 442.357C363.463 460.187 374.197 478.36 392.023 482.947C409.853 487.537 428.027 476.803 432.613 458.977L368.053 442.357ZM464.917 600.667C446.507 600.667 431.583 615.59 431.583 634C431.583 652.41 446.507 667.333 464.917 667.333V600.667ZM465.25 667.333C483.66 667.333 498.583 652.41 498.583 634C498.583 615.59 483.66 600.667 465.25 600.667V667.333ZM300.333 0.666562H140.333V67.3332H300.333V0.666562ZM0.333341 140.667V527.333H67V140.667H0.333341ZM140.333 667.333H333.667V600.667H140.333V667.333ZM523.903 210.43L323.903 10.4296L276.763 57.5702L476.763 257.57L523.903 210.43ZM533.667 267.333V234H467V267.333H533.667ZM0.333341 527.333C0.333341 545.453 0.307342 561.047 1.35234 573.833C2.42901 587.013 4.80634 600.12 11.2327 612.733L70.633 582.467C69.7933 580.817 68.5373 577.46 67.7977 568.407C67.026 558.96 67 546.553 67 527.333H0.333341ZM140.333 600.667C121.115 600.667 108.706 600.64 99.2613 599.87C90.2057 599.13 86.8483 597.873 85.2003 597.033L54.9343 656.433C67.547 662.86 80.6543 665.237 93.8323 666.313C106.621 667.36 122.215 667.333 140.333 667.333V600.667ZM11.2327 612.733C20.82 631.55 36.118 646.847 54.9343 656.433L85.2003 597.033C78.9283 593.837 73.829 588.74 70.633 582.467L11.2327 612.733ZM140.333 0.666562C122.215 0.666562 106.621 0.640563 93.8323 1.68556C80.6543 2.76223 67.547 5.13957 54.9343 11.5659L85.2003 70.9662C86.8483 70.1266 90.2057 68.8706 99.2613 68.1309C108.706 67.3592 121.115 67.3332 140.333 67.3332V0.666562ZM67 140.667C67 121.448 67.026 109.039 67.7977 99.5946C68.5373 90.5389 69.7933 87.1816 70.633 85.5336L11.2327 55.2676C4.80634 67.8802 2.42901 80.9875 1.35234 94.1655C0.307342 106.955 0.333341 122.548 0.333341 140.667H67ZM54.9343 11.5659C36.118 21.1532 20.82 36.4512 11.2327 55.2676L70.633 85.5336C73.829 79.2616 78.9283 74.1622 85.2003 70.9662L54.9343 11.5659ZM267 33.9999V180.667H333.667V33.9999H267ZM353.667 267.333H500.333V200.667H353.667V267.333ZM267 180.667C267 189.451 266.973 198.044 267.563 205.274C268.187 212.894 269.657 221.885 274.267 230.933L333.667 200.667C334.643 202.584 334.297 203.343 334.01 199.846C333.693 195.959 333.667 190.551 333.667 180.667H267ZM353.667 200.667C343.783 200.667 338.373 200.641 334.487 200.323C330.99 200.038 331.75 199.69 333.667 200.667L303.4 260.067C312.447 264.677 321.44 266.146 329.06 266.768C336.29 267.36 344.883 267.333 353.667 267.333V200.667ZM274.267 230.933C280.657 243.477 290.857 253.676 303.4 260.067L333.667 200.667L274.267 230.933ZM167 534H267V467.333H167V534ZM167 400.667H300.333V334H167V400.667ZM167 267.333H200.333V200.667H167V267.333ZM498.233 467.333C498.233 473.107 496.717 477.51 487.583 486.323C482.46 491.267 476.427 496.177 468.063 503.133C460.12 509.743 450.803 517.623 441.33 527.097L488.47 574.237C495.667 567.043 503.017 560.777 510.697 554.387C517.957 548.35 526.507 541.41 533.883 534.29C549.75 518.977 564.9 498.38 564.9 467.333H498.233ZM464.9 434C483.31 434 498.233 448.923 498.233 467.333H564.9C564.9 412.103 520.127 367.333 464.9 367.333V434ZM432.613 458.977C436.317 444.59 449.413 434 464.9 434V367.333C418.257 367.333 379.15 399.233 368.053 442.357L432.613 458.977ZM464.917 667.333H465.25V600.667H464.917V667.333Z" fill="#FAFAFA"/>
</svg>
