<svg width="39" height="39" viewBox="0 0 39 39" fill="none" xmlns="http://www.w3.org/2000/svg">
<path d="M12.1875 31.6875H7.3125C5.96624 31.6875 4.875 30.5961 4.875 29.25V9.75C4.875 8.40389 5.96624 7.3125 7.3125 7.3125H12.1875C13.5338 7.3125 14.625 6.22111 14.625 4.875C14.625 3.52889 13.5338 2.4375 12.1875 2.4375H7.3125C3.27387 2.4375 0 5.71137 0 9.75V29.25C0 33.2886 3.27387 36.5625 7.3125 36.5625H12.1875C13.5338 36.5625 14.625 35.4711 14.625 34.125C14.625 32.7789 13.5338 31.6875 12.1875 31.6875ZM38.2859 17.7766L28.5359 8.02661C27.5831 7.07385 26.0406 7.07507 25.0891 8.02661C24.137 8.97876 24.137 10.5212 25.0891 11.4734L30.6782 17.0625H14.625C13.2777 17.0625 12.1875 18.1527 12.1875 19.5C12.1875 20.8473 13.2777 21.9375 14.625 21.9375H30.6782L25.0891 27.5266C24.137 28.4788 24.137 30.0212 25.0891 30.9734C26.0413 31.9255 27.5837 31.9255 28.5359 30.9734L38.2859 21.2234C39.238 20.2712 39.238 18.7288 38.2859 17.7766Z" fill="#ffffff"/>
</svg>
