<svg width="44" height="39" viewBox="0 0 44 39" fill="none" xmlns="http://www.w3.org/2000/svg">
<path d="M41.5554 0H2.44429C1.09435 0 0 1.09124 0 2.43735V2.43811C0 3.78422 1.09442 4.87553 2.44444 4.87553V24.3777C2.44444 25.7185 3.5446 26.8155 4.88919 26.8155H19.5556V29.4628L13.8073 35.1954C13.3294 35.6721 13.3294 36.4519 13.8073 36.9285L15.526 38.6425C16.0039 39.1191 16.786 39.1191 17.2639 38.6425L22 33.9193L26.7361 38.6425C27.214 39.1191 27.9961 39.1191 28.474 38.6425L30.1927 36.9285C30.6706 36.4519 30.6706 35.6721 30.1927 35.1954L24.4444 29.4628V26.8155H39.1111C40.4556 26.8155 41.5556 25.7187 41.5556 24.378V4.87553C42.9056 4.87553 44 3.78422 44 2.43811V2.43765C44 1.09139 42.9055 0 41.5554 0ZM36.6667 21.94H7.33333V4.87553H36.6667V21.94Z" fill="#ffffff"/>
</svg>
